<svg xmlns="http://www.w3.org/2000/svg" xmlns:xlink="http://www.w3.org/1999/xlink" width="742.5" zoomAndPan="magnify" viewBox="0 0 742.5 299.999988" height="299.999988" preserveAspectRatio="xMidYMid meet" version="1.0"><defs><g><g id="id1"/><g id="id2"/></g><clipPath id="id3"><path d="M 47 18.035156 L 156 18.035156 L 156 124 L 47 124 Z M 47 18.035156 " clip-rule="nonzero"/></clipPath></defs><path fill="rgb(12.159729%, 33.729553%, 45.098877%)" d="M 187.480469 137.527344 L 11.425781 175.746094 L 9.398438 193.492188 L 197.269531 222.265625 Z M 187.480469 137.527344 " fill-opacity="1" fill-rule="nonzero"/><path fill="rgb(7.449341%, 14.898682%, 18.429565%)" d="M 200.285156 248.417969 L 8.804688 198.683594 L 1.191406 264.882812 C 0.15625 273.976562 7.222656 281.9375 16.371094 281.9375 L 186.988281 281.9375 C 196.132812 281.9375 203.253906 273.976562 202.164062 264.882812 Z M 200.285156 248.417969 " fill-opacity="1" fill-rule="nonzero"/><path fill="rgb(28.239441%, 79.219055%, 89.408875%)" d="M 186.988281 133.226562 L 182.539062 94.8125 C 181.796875 88.4375 176.40625 83.640625 170.027344 83.640625 L 33.277344 83.640625 C 26.851562 83.640625 21.460938 88.4375 20.769531 94.8125 L 13.550781 157.453125 Z M 186.988281 133.226562 " fill-opacity="1" fill-rule="nonzero"/><g clip-path="url(#id3)"><path fill="rgb(15.289307%, 15.289307%, 15.289307%)" d="M 150.449219 101.191406 L 150.449219 66.882812 C 150.449219 39.988281 128.550781 18.085938 101.652344 18.085938 C 74.757812 18.085938 52.855469 39.988281 52.855469 66.882812 L 52.855469 101.191406 C 49.792969 103.464844 47.765625 107.074219 47.765625 111.226562 C 47.765625 118.148438 53.351562 123.734375 60.273438 123.734375 C 67.195312 123.734375 72.78125 118.148438 72.78125 111.226562 C 72.78125 107.125 70.753906 103.464844 67.6875 101.191406 L 67.6875 66.882812 C 67.6875 48.144531 82.917969 32.917969 101.652344 32.917969 C 120.390625 32.917969 135.617188 48.144531 135.617188 66.882812 L 135.617188 101.191406 C 132.554688 103.464844 130.527344 107.074219 130.527344 111.226562 C 130.527344 118.148438 136.113281 123.734375 143.035156 123.734375 C 149.957031 123.734375 155.542969 118.148438 155.542969 111.226562 C 155.542969 107.074219 153.515625 103.464844 150.449219 101.191406 Z M 150.449219 101.191406 " fill-opacity="1" fill-rule="nonzero"/></g><g fill="rgb(15.289307%, 15.289307%, 15.289307%)" fill-opacity="1"><g transform="translate(201.83381, 177.427515)"><g><path d="M 27.5625 -57.5625 C 36.070312 -57.5625 43.550781 -55.445312 50 -51.21875 L 44.546875 -39.921875 C 41.566406 -41.648438 38.367188 -43.066406 34.953125 -44.171875 C 31.546875 -45.285156 28.675781 -45.84375 26.34375 -45.84375 C 22.164062 -45.84375 20.078125 -44.460938 20.078125 -41.703125 C 20.078125 -39.910156 21.109375 -38.472656 23.171875 -37.390625 C 25.234375 -36.304688 27.738281 -35.367188 30.6875 -34.578125 C 33.644531 -33.796875 36.597656 -32.847656 39.546875 -31.734375 C 42.503906 -30.628906 45.007812 -28.828125 47.0625 -26.328125 C 49.125 -23.835938 50.15625 -20.695312 50.15625 -16.90625 C 50.15625 -11.4375 48.015625 -7.171875 43.734375 -4.109375 C 39.453125 -1.046875 34.003906 0.484375 27.390625 0.484375 C 22.679688 0.484375 18.019531 -0.328125 13.40625 -1.953125 C 8.800781 -3.578125 4.789062 -5.800781 1.375 -8.625 L 6.984375 -19.75 C 9.859375 -17.257812 13.242188 -15.210938 17.140625 -13.609375 C 21.046875 -12.015625 24.519531 -11.21875 27.5625 -11.21875 C 29.894531 -11.21875 31.707031 -11.632812 33 -12.46875 C 34.300781 -13.3125 34.953125 -14.546875 34.953125 -16.171875 C 34.953125 -17.742188 34.207031 -19.054688 32.71875 -20.109375 C 31.226562 -21.171875 29.367188 -21.957031 27.140625 -22.46875 C 24.921875 -22.988281 22.507812 -23.679688 19.90625 -24.546875 C 17.3125 -25.421875 14.898438 -26.367188 12.671875 -27.390625 C 10.453125 -28.421875 8.597656 -30.0625 7.109375 -32.3125 C 5.617188 -34.5625 4.875 -37.257812 4.875 -40.40625 C 4.875 -45.601562 6.945312 -49.757812 11.09375 -52.875 C 15.238281 -56 20.726562 -57.5625 27.5625 -57.5625 Z M 27.5625 -57.5625 "/></g></g></g><g fill="rgb(15.289307%, 15.289307%, 15.289307%)" fill-opacity="1"><g transform="translate(267.582126, 177.427515)"><g><path d="M 58.203125 0 L 43.734375 0 L 43.734375 -22.109375 L 20.15625 -22.109375 L 20.15625 0 L 5.6875 0 L 5.6875 -56.90625 L 20.15625 -56.90625 L 20.15625 -33.5 L 43.734375 -33.5 L 43.734375 -56.90625 L 58.203125 -56.90625 Z M 58.203125 0 "/></g></g></g><g fill="rgb(15.289307%, 15.289307%, 15.289307%)" fill-opacity="1"><g transform="translate(344.870085, 177.427515)"><g><path d="M 49.1875 -45.28125 L 32.03125 -45.28125 L 32.03125 0 L 17.5625 0 L 17.5625 -45.28125 L 0.5625 -45.28125 L 0.5625 -56.984375 L 49.1875 -56.984375 Z M 49.1875 -45.28125 "/></g></g></g><g fill="rgb(15.289307%, 15.289307%, 15.289307%)" fill-opacity="1"><g transform="translate(407.936653, 177.427515)"><g><path d="M 43.5 -10.484375 L 18.609375 -10.484375 L 14.46875 0 L -0.40625 0 L 24.140625 -56.90625 L 39.015625 -56.90625 L 63 0 L 47.5625 0 Z M 39.265625 -21.46875 L 31.140625 -42.515625 L 22.84375 -21.46875 Z M 39.265625 -21.46875 "/></g></g></g><g fill="rgb(15.289307%, 15.289307%, 15.289307%)" fill-opacity="1"><g transform="translate(483.924369, 177.427515)"><g><path d="M 20.15625 0 L 5.6875 0 L 5.6875 -56.90625 L 20.15625 -56.90625 Z M 20.15625 0 "/></g></g></g><g fill="rgb(15.289307%, 15.289307%, 15.289307%)" fill-opacity="1"><g transform="translate(523.180339, 177.427515)"><g><path d="M 5.6875 -56.90625 L 32.59375 -56.90625 C 38.988281 -56.90625 44.070312 -55.617188 47.84375 -53.046875 C 51.613281 -50.472656 53.5 -47.019531 53.5 -42.6875 C 53.5 -39.695312 52.628906 -37.078125 50.890625 -34.828125 C 49.160156 -32.585938 46.773438 -31.03125 43.734375 -30.15625 C 47.316406 -29.457031 50.160156 -27.804688 52.265625 -25.203125 C 54.378906 -22.597656 55.4375 -19.453125 55.4375 -15.765625 C 55.4375 -10.941406 53.472656 -7.109375 49.546875 -4.265625 C 45.617188 -1.421875 40.296875 0 33.578125 0 L 5.6875 0 Z M 20.078125 -45.84375 L 20.078125 -34.140625 L 31.78125 -34.140625 C 33.894531 -34.140625 35.578125 -34.664062 36.828125 -35.71875 C 38.078125 -36.78125 38.703125 -38.234375 38.703125 -40.078125 C 38.703125 -41.867188 38.078125 -43.273438 36.828125 -44.296875 C 35.578125 -45.328125 33.894531 -45.84375 31.78125 -45.84375 Z M 20.078125 -23.734375 L 20.078125 -11.140625 L 31.78125 -11.140625 C 34.5 -11.140625 36.628906 -11.707031 38.171875 -12.84375 C 39.710938 -13.976562 40.484375 -15.550781 40.484375 -17.5625 C 40.484375 -19.457031 39.710938 -20.957031 38.171875 -22.0625 C 36.628906 -23.175781 34.5 -23.734375 31.78125 -23.734375 Z M 20.078125 -23.734375 "/></g></g></g><g fill="rgb(15.289307%, 15.289307%, 15.289307%)" fill-opacity="1"><g transform="translate(594.698472, 177.427515)"><g><path d="M 43.5 -10.484375 L 18.609375 -10.484375 L 14.46875 0 L -0.40625 0 L 24.140625 -56.90625 L 39.015625 -56.90625 L 63 0 L 47.5625 0 Z M 39.265625 -21.46875 L 31.140625 -42.515625 L 22.84375 -21.46875 Z M 39.265625 -21.46875 "/></g></g></g><g fill="rgb(15.289307%, 15.289307%, 15.289307%)" fill-opacity="1"><g transform="translate(337.193241, 228.775937)"><g><path d="M 11.453125 -25.078125 C 14.671875 -25.078125 17.570312 -24.222656 20.15625 -22.515625 L 18.421875 -18.8125 C 15.878906 -20.351562 13.445312 -21.125 11.125 -21.125 C 9.875 -21.125 8.882812 -20.894531 8.15625 -20.4375 C 7.4375 -19.988281 7.078125 -19.347656 7.078125 -18.515625 C 7.078125 -17.691406 7.40625 -16.988281 8.0625 -16.40625 C 8.726562 -15.832031 9.5625 -15.40625 10.5625 -15.125 C 11.5625 -14.851562 12.640625 -14.507812 13.796875 -14.09375 C 14.960938 -13.6875 16.039062 -13.25 17.03125 -12.78125 C 18.03125 -12.320312 18.851562 -11.597656 19.5 -10.609375 C 20.15625 -9.628906 20.484375 -8.441406 20.484375 -7.046875 C 20.484375 -4.859375 19.609375 -3.113281 17.859375 -1.8125 C 16.117188 -0.507812 13.863281 0.140625 11.09375 0.140625 C 9.195312 0.140625 7.359375 -0.210938 5.578125 -0.921875 C 3.804688 -1.628906 2.253906 -2.59375 0.921875 -3.8125 L 2.734375 -7.4375 C 3.992188 -6.269531 5.375 -5.375 6.875 -4.75 C 8.382812 -4.125 9.816406 -3.8125 11.171875 -3.8125 C 12.640625 -3.8125 13.78125 -4.078125 14.59375 -4.609375 C 15.414062 -5.140625 15.828125 -5.878906 15.828125 -6.828125 C 15.828125 -7.679688 15.492188 -8.394531 14.828125 -8.96875 C 14.160156 -9.550781 13.328125 -9.976562 12.328125 -10.25 C 11.335938 -10.53125 10.257812 -10.863281 9.09375 -11.25 C 7.9375 -11.644531 6.859375 -12.0625 5.859375 -12.5 C 4.867188 -12.9375 4.039062 -13.640625 3.375 -14.609375 C 2.707031 -15.585938 2.375 -16.765625 2.375 -18.140625 C 2.375 -20.242188 3.203125 -21.925781 4.859375 -23.1875 C 6.523438 -24.445312 8.722656 -25.078125 11.453125 -25.078125 Z M 11.453125 -25.078125 "/></g></g></g><g fill="rgb(15.289307%, 15.289307%, 15.289307%)" fill-opacity="1"><g transform="translate(368.065363, 228.775937)"><g><path d="M 20.265625 -21.125 L 12.375 -21.125 L 12.375 0 L 8.171875 0 L 8.171875 -21.125 L 0.3125 -21.125 L 0.3125 -24.890625 L 20.265625 -24.890625 Z M 20.265625 -21.125 "/></g></g></g><g fill="rgb(15.289307%, 15.289307%, 15.289307%)" fill-opacity="1"><g transform="translate(397.408094, 228.775937)"><g><path d="M 5 -21.390625 C 7.539062 -23.796875 10.671875 -25 14.390625 -25 C 18.117188 -25 21.25 -23.796875 23.78125 -21.390625 C 26.320312 -18.984375 27.59375 -16 27.59375 -12.4375 C 27.59375 -8.882812 26.320312 -5.894531 23.78125 -3.46875 C 21.25 -1.039062 18.117188 0.171875 14.390625 0.171875 C 10.671875 0.171875 7.539062 -1.039062 5 -3.46875 C 2.46875 -5.894531 1.203125 -8.882812 1.203125 -12.4375 C 1.203125 -16 2.46875 -18.984375 5 -21.390625 Z M 14.4375 -21.234375 C 11.96875 -21.234375 9.859375 -20.382812 8.109375 -18.6875 C 6.359375 -16.988281 5.484375 -14.90625 5.484375 -12.4375 C 5.484375 -9.976562 6.363281 -7.890625 8.125 -6.171875 C 9.894531 -4.453125 12 -3.59375 14.4375 -3.59375 C 16.875 -3.59375 18.957031 -4.453125 20.6875 -6.171875 C 22.425781 -7.890625 23.296875 -9.976562 23.296875 -12.4375 C 23.296875 -14.90625 22.425781 -16.988281 20.6875 -18.6875 C 18.957031 -20.382812 16.875 -21.234375 14.4375 -21.234375 Z M 14.4375 -21.234375 "/></g></g></g><g fill="rgb(15.289307%, 15.289307%, 15.289307%)" fill-opacity="1"><g transform="translate(434.966809, 228.775937)"><g><path d="M 19.0625 0 L 14.515625 -7.546875 C 14.273438 -7.515625 13.894531 -7.5 13.375 -7.5 L 7.46875 -7.5 L 7.46875 0 L 3.265625 0 L 3.265625 -24.890625 L 13.375 -24.890625 C 16.550781 -24.890625 19.015625 -24.148438 20.765625 -22.671875 C 22.523438 -21.191406 23.40625 -19.097656 23.40625 -16.390625 C 23.40625 -14.398438 22.957031 -12.71875 22.0625 -11.34375 C 21.175781 -9.96875 19.90625 -8.960938 18.25 -8.328125 L 23.828125 0 Z M 7.46875 -11.265625 L 13.375 -11.265625 C 17.40625 -11.265625 19.421875 -12.9375 19.421875 -16.28125 C 19.421875 -19.507812 17.40625 -21.125 13.375 -21.125 L 7.46875 -21.125 Z M 7.46875 -11.265625 "/></g></g></g><g fill="rgb(15.289307%, 15.289307%, 15.289307%)" fill-opacity="1"><g transform="translate(469.431194, 228.775937)"><g><path d="M 21.046875 -21.125 L 7.46875 -21.125 L 7.46875 -14.40625 L 19.625 -14.40625 L 19.625 -10.640625 L 7.46875 -10.640625 L 7.46875 -3.765625 L 21.484375 -3.765625 L 21.484375 0 L 3.265625 0 L 3.265625 -24.890625 L 21.046875 -24.890625 Z M 21.046875 -21.125 "/></g></g></g></svg>